<?xml version="1.0" encoding="utf-8"?>
<!-- Generator: Adobe Illustrator 26.5.0, SVG Export Plug-In . SVG Version: 6.00 Build 0)  -->
<svg version="1.1" id="Ebene_1" xmlns="http://www.w3.org/2000/svg" xmlns:xlink="http://www.w3.org/1999/xlink" x="0px" y="0px"
	 viewBox="0 0 188.1 201.9" style="enable-background:new 0 0 188.1 201.9;" xml:space="preserve">
<g>
	<path d="M123.6,112.9c14.2,0,28.2,0.3,42.1-0.1c5.6-0.2,8.6-4.4,8.6-10.6c0-25.3,0-50.6,0-76c0-7.2-3.7-10.7-11.2-10.8
		c-45.5,0-91.1,0-136.6,0c-7.9,0-11.4,3.5-11.4,11.4c0,49.3,0,98.6,0,147.9c0,7.8,3.5,11.4,11.1,11.4c21.2,0.1,42.4,0,63.7,0
		c7.8,0,11.2-3.5,11.2-11.2c0.1-11.6,0-23.3,0-34.9c0-2.7,0-5.4,0-8.1c-24.3,0.3-39-12.7-37.8-32.8c1-18.2,17.7-31.3,36.1-28.6
		C118.4,73.4,128.5,90.9,123.6,112.9z"/>
</g>
</svg>
