<?xml version="1.0" encoding="utf-8"?>
<!-- Generator: Adobe Illustrator 26.5.0, SVG Export Plug-In . SVG Version: 6.00 Build 0)  -->
<svg version="1.1" id="Ebene_1" xmlns="http://www.w3.org/2000/svg" xmlns:xlink="http://www.w3.org/1999/xlink" x="0px" y="0px"
	 viewBox="0 0 952.1 201.9" style="enable-background:new 0 0 952.1 201.9;" xml:space="preserve">
<style type="text/css">
	.st0{fill:#FFFFFF;}
	.st1{enable-background:new    ;}
</style>
<g>
	<path class="st0" d="M127.8,114.7c16.3,0,32.3,0.3,48.2-0.1c6.4-0.2,9.9-5,9.9-12.1c0-29,0-58,0-87c0-8.3-4.2-12.3-12.8-12.4
		c-52.1,0-104.3,0-156.4,0c-9.1,0-13.1,4-13.1,13.1c0,56.5,0,112.9,0,169.4c0,8.9,4,13,12.7,13c24.3,0.1,48.6,0,73,0
		c8.9,0,12.8-4,12.8-12.8c0.1-13.3,0-26.7,0-40c0-3.1,0-6.2,0-9.3c-27.8,0.4-44.7-14.5-43.3-37.6c1.2-20.8,20.3-35.8,41.4-32.7
		C121.8,69.4,133.4,89.4,127.8,114.7z"/>
</g>
<g>
	<path class="st0" d="M240.7,198.8V51.7h30.5v16.2h1.1c5.9-11.8,18.6-18.4,35.1-18.4c31.1,0,47.4,22.6,47.4,57.4
		c0,34.6-16.9,57.2-46.7,57.2c-17.5,0-28.3-7.2-33.3-16.7h-1.1v51.3L240.7,198.8L240.7,198.8z M297.7,136.1
		c19.1,0,24.1-9.2,24.1-29.2c0-20.2-5-29.4-24.1-29.4c-15.6,0-24.1,5.5-24.1,20.4v17.8C273.5,130.6,282.1,136.1,297.7,136.1z"/>
	<path class="st0" d="M355.1,161.9v-25.2l44.1-41.2L415,82.4l-0.2-2.4l-15.6,0.4h-40.8V51.7h101.1v27.6l-46,40.6l-13.8,11.4l0.2,2.2
		l13.6-0.2h49.3V162H355.1V161.9z"/>
	<path class="st0" d="M468.7,161.9V15.1h32.7V162h-32.7V161.9z"/>
	<path class="st0" d="M513.8,161.9V51.7h30.5v17.8h1.3c5.5-11.2,15.3-20,30.9-20c23,0,31.6,17.1,31.6,39.2v10.1h-32.7v-5.9
		c0-11.8-3.7-15.6-14-15.6c-10.1,0-14.9,3.5-14.9,15.6V162h-32.7L513.8,161.9L513.8,161.9z"/>
</g>
<g class="st1">
	<path class="st0" d="M614.5,124.1C614.7,101.8,630,85,651.4,85c11,0,21.3,5.2,25.9,11.8V52.5h12.4V162h-12.4v-10.1
		c-5,6.7-15.8,11.4-25.9,11.4C630.3,163.3,614.7,148.5,614.5,124.1z M652.2,151.9c15.8,0,25.3-12.7,25.3-27.8
		c0-14.9-9.5-27.7-25.3-27.7c-15.7,0-25.2,12.6-25.2,27.7C627.1,139.4,636.6,151.9,652.2,151.9z"/>
	<path class="st0" d="M699.3,124.3c0-22.2,16.3-39.2,39.4-39.2s39.4,17,39.4,39.2c0,22.1-16,39.1-39.4,39.1
		C715.3,163.3,699.3,146.5,699.3,124.3z M738.7,151.9c15.1,0,26.8-11.2,26.8-27.7c0-16.4-11.7-27.8-26.8-27.8s-26.8,11.4-26.8,27.8
		C711.9,140.7,723.7,151.9,738.7,151.9z"/>
	<path class="st0" d="M782.5,124.1c0-23.8,17.2-39.1,38.5-39.1c20.4,0,30.6,12.7,33.9,21.8l-10.7,5.5c-2.7-7.7-10.2-15.8-23.2-15.8
		c-15.2,0-25.9,11.5-25.9,27.7c0,15.5,10.5,27.8,25.8,27.8c12.9,0,21-8.1,23.7-15.8l10.7,5.5c-3.3,9-14.1,21.8-34.3,21.8
		C800.1,163.3,782.5,147.6,782.5,124.1z"/>
	<path class="st0" d="M859.6,142.9l10.5-5.3c1.5,6.2,8.9,14.7,21.3,14.7c10.7,0,17.2-4.6,17.2-11.2c0-5-3.6-8.9-11-10.4l-14.4-2.8
		c-12.1-2.4-19.5-9.5-19.5-21c0-12.3,11.1-21.8,28-21.8c18.8,0,26.5,11,28.9,18.4l-10.4,5c-1.3-5.8-7.3-12.6-18.5-12.6
		c-10.2,0-16.1,4.9-16.1,11c0,5.5,3.8,8.6,9.8,9.8l15.5,3.1c13.3,2.7,20.3,11,20.3,21.3c0,13.5-12.4,22.3-29.7,22.3
		C871.9,163.3,862.3,151.5,859.6,142.9z"/>
</g>
</svg>
