<?xml version="1.0" encoding="utf-8"?>
<!-- Generator: Adobe Illustrator 26.5.0, SVG Export Plug-In . SVG Version: 6.00 Build 0)  -->
<svg version="1.1" id="Ebene_1" xmlns="http://www.w3.org/2000/svg" xmlns:xlink="http://www.w3.org/1999/xlink" x="0px" y="0px"
	 viewBox="0 0 952.1 201.9" style="enable-background:new 0 0 952.1 201.9;" xml:space="preserve">
<style type="text/css">
	.st0{font-family:'Brockmann-Regular';}
	.st1{font-size:148px;}
</style>
<g>
	<path d="M127.8,114.7c16.3,0,32.3,0.3,48.2-0.1c6.4-0.2,9.9-5,9.9-12.1c0-29,0-58,0-87c0-8.3-4.2-12.3-12.8-12.4
		c-52.1,0-104.3,0-156.4,0c-9.1,0-13.1,4-13.1,13.1c0,56.5,0,112.9,0,169.4c0,8.9,4,13,12.7,13c24.3,0.1,48.6,0,73,0
		c8.9,0,12.8-4,12.8-12.8c0.1-13.3,0-26.7,0-40c0-3.1,0-6.2,0-9.3c-27.8,0.4-44.7-14.5-43.3-37.6c1.2-20.8,20.3-35.8,41.4-32.7
		C121.8,69.4,133.4,89.4,127.8,114.7z"/>
</g>
<g>
	<path d="M240.7,198.8V51.7h30.5v16.2h1.1c5.9-11.8,18.6-18.4,35.1-18.4c31.1,0,47.4,22.6,47.4,57.4c0,34.6-16.9,57.2-46.7,57.2
		c-17.5,0-28.3-7.2-33.3-16.7h-1.1v51.3L240.7,198.8L240.7,198.8z M297.7,136.1c19.1,0,24.1-9.2,24.1-29.2c0-20.2-5-29.4-24.1-29.4
		c-15.6,0-24.1,5.5-24.1,20.4v17.8C273.5,130.6,282.1,136.1,297.7,136.1z"/>
	<path d="M355.1,161.9v-25.2l44.1-41.2L415,82.4l-0.2-2.4l-15.6,0.4h-40.8V51.7h101.1v27.6l-46,40.6l-13.8,11.4l0.2,2.2l13.6-0.2
		h49.3V162H355.1V161.9z"/>
	<path d="M468.7,161.9V15.1h32.7V162h-32.7V161.9z"/>
	<path d="M513.8,161.9V51.7h30.5v17.8h1.3c5.5-11.2,15.3-20,30.9-20c23,0,31.6,17.1,31.6,39.2v10.1h-32.7v-5.9
		c0-11.8-3.7-15.6-14-15.6c-10.1,0-14.9,3.5-14.9,15.6V162h-32.7V161.9z"/>
</g>
<text transform="matrix(1 0 0 1 607.8458 161.9996)" class="st0 st1">docs</text>
</svg>
